<svg xmlns="http://www.w3.org/2000/svg" width="639.033" height="489.312" viewBox="0 0 639.033 489.312">
  <g id="Group_135704" data-name="Group 135704" transform="translate(941.517 -1213.295)">
    <g id="Group_135614" data-name="Group 135614" transform="translate(-1041.793 1156.952)">
      <path id="Path_151622" data-name="Path 151622" d="M342.626,378.933a140.282,140.282,0,0,1-32.84,11.982,159.377,159.377,0,0,1-35.277,3.794,162.464,162.464,0,0,1-69.984-16.355,157.575,157.575,0,0,1-31.063-20.13A153.772,153.772,0,0,1,148.35,330.4,147.67,147.67,0,0,1,130.9,297.007a182.358,182.358,0,0,1-5.721-18.023,173.617,173.617,0,0,1,41.368-159.609,160.3,160.3,0,0,1,65.021-42.027,158.652,158.652,0,0,1,114.767,6.57,161.427,161.427,0,0,1,33.369,19.9A171.5,171.5,0,0,1,407.458,131a290.789,290.789,0,0,1,20.869,30.454,632.821,632.821,0,0,1,32.611,63.065c9.785,21.168,18.812,42.406,28.207,63.175,4.7,10.4,9.5,20.629,14.478,30.734s10.394,19.82,16.086,29.376A287.948,287.948,0,0,0,538.4,375.219a189.255,189.255,0,0,0,22.047,24.373,124.811,124.811,0,0,0,56.445,31.672,145.109,145.109,0,0,0,16.405,2.7,134.7,134.7,0,0,0,16.874.359A153.354,153.354,0,0,0,667.2,432.8c2.8-.449,5.761-.819,8.417-1.508a68.143,68.143,0,0,0,8.048-3,69.511,69.511,0,0,1-7.509,4.5c-2.786,1.228-5.5,2-8.3,2.926a157.254,157.254,0,0,1-17.044,4.334,132.789,132.789,0,0,1-17.653,2.087,153.429,153.429,0,0,1-17.973-.449,135.3,135.3,0,0,1-66.669-27.728A241.714,241.714,0,0,1,498.9,361.639a511.161,511.161,0,0,1-36.575-60.758c-21.827-41.178-40.678-83.154-64.562-120.3-3-4.613-6.091-9.106-9.2-13.559a158.266,158.266,0,0,0-9.606-12.6,134.388,134.388,0,0,0-21.967-20.669,126.072,126.072,0,0,0-25.961-15.247,121.441,121.441,0,0,0-28.707-8.847,123.813,123.813,0,0,0-29.795-2,131.578,131.578,0,0,0-29.256,5.4,126.738,126.738,0,0,0-50.7,31.313,146.12,146.12,0,0,0-32.6,51.612,153,153,0,0,0-7.359,30.144,141.919,141.919,0,0,0-1.118,31.243c.25,5.242,1.138,10.374,1.837,15.576a154.069,154.069,0,0,0,3.695,15.237A131.527,131.527,0,0,0,169.4,317.006a137.3,137.3,0,0,0,19.071,25.162,143.655,143.655,0,0,0,25.112,19.97,148.884,148.884,0,0,0,29.455,14.348,169.229,169.229,0,0,0,32.3,7.828,154.161,154.161,0,0,0,33.689,1A152,152,0,0,0,342.626,378.933Z" transform="translate(55.639 37.028)" fill="#fca01f"/>
      <path id="Path_151623" data-name="Path 151623" d="M193.644,332.227a108.3,108.3,0,0,0,26.32-14.977,111.768,111.768,0,0,0,20.769-20.968A41.526,41.526,0,0,0,249.18,273.1a8.787,8.787,0,0,0-5.072-8.687,94.746,94.746,0,0,0-13.04-3.864,177.25,177.25,0,0,1-34.048-9.416,38.75,38.75,0,0,1-13.04-13.04,44.546,44.546,0,0,1-5.072-23.664,143.471,143.471,0,0,1,1.688-20.968q3.864-15.686,7.249-27.528,3.375-9.656,12.072-29.7a163.916,163.916,0,0,1,16.175-27.958,120.9,120.9,0,0,1,20.28-20.968,44.5,44.5,0,0,1,24.393-9.655,8.143,8.143,0,0,1,1.927-.24,14.758,14.758,0,0,1,9.176,3.135,38.661,38.661,0,0,1,7.249,10.145,40.942,40.942,0,0,1,3.625,13.759,40.3,40.3,0,0,1,1,8.687,35.465,35.465,0,0,1-.479,5.8,29.1,29.1,0,0,1-3.385,10.624,6.35,6.35,0,0,1-5.991,4.344,12.89,12.89,0,0,1-5.791-1.448,43.137,43.137,0,0,1-5.8-3.864c-.639-.319-1.608-.879-2.9-1.687s-2.257-1.368-2.9-1.7a16.708,16.708,0,0,0-5.941-1.588,32.58,32.58,0,0,0-19.071,6.28,80.5,80.5,0,0,0-16.9,16.415,101.627,101.627,0,0,0-12.311,20.529,53.825,53.825,0,0,0-4.343,19.8,23.454,23.454,0,0,0,4.823,17.144,27.088,27.088,0,0,0,12.311,6.76q7.249,1.448,15.976,2.9a39.313,39.313,0,0,1,15.7,6.281A34.677,34.677,0,0,1,259.294,235.7a89.072,89.072,0,0,1,5.792,33.08,115.821,115.821,0,0,1-8.687,45.152,108.245,108.245,0,0,1-58.432,60.119" transform="translate(220.168 59.161)" fill="#fff"/>
      <path id="Path_151624" data-name="Path 151624" d="M100.276,69.663" transform="translate(0 37.345)" fill="#a3a3a3"/>
      <path id="Path_151625" data-name="Path 151625" d="M682.26,302.772a14.059,14.059,0,0,0-3.664-9.366,14.348,14.348,0,0,0-8.158-2.786c-20.179-2.2-42.935,1.458-58.8-11.2-6.989,26.4-3.285,57.054-20.309,78.411-4.852,6.1-13.07,11.273-20.13,7.988a16.5,16.5,0,0,1-7.858-10.544c-3.624-11.842-.639-24.623-1.747-36.944a17.123,17.123,0,0,0-7.429-14.428,13.759,13.759,0,0,0-15.826,4.483,45.223,45.223,0,0,0-7.419,15.976,242.563,242.563,0,0,1-62.9,98.94,249.44,249.44,0,0,1-54.747,39.83c-47.688,25.541-96.544,24.173-146.968,5.621A213.118,213.118,0,0,1,185.64,415.2c-44.543-46.929-71.073-110.183-61-173.537a202.742,202.742,0,0,1,35.946-88.057,189.448,189.448,0,0,1,32.3-35.406,217.847,217.847,0,0,1,40.169-26.65,256.9,256.9,0,0,1,93.988-25.661,351.83,351.83,0,0,1,99.27,5.991,304.779,304.779,0,0,0-99.749-15.517,281.3,281.3,0,0,0-50.923,5.572,244.7,244.7,0,0,0-49.1,15.976,206.848,206.848,0,0,0-80.648,64.9,213.577,213.577,0,0,0-30.075,199.309A225.347,225.347,0,0,0,171.372,429.2c47.358,45.7,114.637,75.476,181.136,71.172,65.9-4.274,128.036-28.826,162.175-88.656a194.255,194.255,0,0,0,17.793-42.176,27.637,27.637,0,0,1,4.184-9.8,8.637,8.637,0,0,1,9.446-3.285c4.832,1.937,5.292,8.417,5.591,13.619a64.561,64.561,0,0,0,9.985,30.953,15.686,15.686,0,0,0,27.588,2.057c16.385-15.337,22.306-38.4,31.273-58.981a15.388,15.388,0,0,1,4.9-7.049,16.087,16.087,0,0,1,9.845-1.6l26.26,1.348a19.74,19.74,0,0,0,15.786-3.794,17.174,17.174,0,0,0,3.684-8.447,71.269,71.269,0,0,0,1.239-21.8Z" transform="translate(8.883 0)" fill="#fff"/>
      <path id="Path_151626" data-name="Path 151626" d="M181.63,184.982" transform="translate(228.098 360.673)" fill="#161b4b"/>
    </g>
  </g>
</svg>
