<svg xmlns="http://www.w3.org/2000/svg" xmlns:xlink="http://www.w3.org/1999/xlink" width="591"
    height="374" viewBox="0 0 591 374">
    <defs>
        <filter id="a" x="0" y="0" width="591" height="374" filterUnits="userSpaceOnUse">
            <feOffset dy="12" input="SourceAlpha" />
            <feGaussianBlur stdDeviation="40" result="b" />
            <feFlood flood-color="#1d436a" flood-opacity="0.2" />
            <feComposite operator="in" in2="b" />
            <feComposite in="SourceGraphic" />
        </filter>
    </defs>
    <g transform="translate(120 108)">
        <g transform="matrix(1, 0, 0, 1, -120, -108)" filter="url(#a)">
            <path
                d="M118.12,134a14,14,0,0,1-14-14,14,14,0,0,1-14,14H14A14,14,0,0,1,0,120V14A14,14,0,0,1,14,0H90.12a14,14,0,0,1,14,14,14,14,0,0,1,14-14H337a14,14,0,0,1,14,14V120a14,14,0,0,1-14,14Z"
                transform="translate(120 108)" fill="#fff" />
        </g>
        <g transform="translate(124 27)">
            <line y1="0.138" x2="184" transform="translate(11.5 3.362)" fill="none" stroke="#edf0f5"
                stroke-width="1" stroke-dasharray="4" />
            <g transform="translate(196)" fill="#fbb03f" stroke="#fff" stroke-width="1">
                <circle cx="3.5" cy="3.5" r="3.5" stroke="none" />
                <circle cx="3.5" cy="3.5" r="3" fill="none" />
            </g>
            <g fill="#322a7d" stroke="#fff" stroke-width="1">
                <circle cx="3.5" cy="3.5" r="3.5" stroke="none" />
                <circle cx="3.5" cy="3.5" r="3" fill="none" />
            </g>
        </g>
        <line y2="106" transform="translate(104 14)" fill="none" stroke="#fbb03f" stroke-width="1"
            stroke-dasharray="6 2" opacity="0.5" />
        <line y2="87" transform="translate(94.5 74) rotate(90)" fill="none" stroke="#ccd3df"
            stroke-width="1" stroke-dasharray="6 2" opacity="0.5" />
        <g transform="translate(118 76)">
            <g transform="translate(5 22)">
                <line x2="185" transform="translate(11.5 3.679)" fill="none" stroke="#edf0f5"
                    stroke-width="1" stroke-dasharray="4" />
                <g transform="translate(197)" fill="#322a7d">
                    <path
                        d="M 3.5 6.5 C 1.845790028572083 6.5 0.5 5.154210090637207 0.5 3.5 C 0.5 1.845790028572083 1.845790028572083 0.5 3.5 0.5 C 5.154210090637207 0.5 6.5 1.845790028572083 6.5 3.5 C 6.5 5.154210090637207 5.154210090637207 6.5 3.5 6.5 Z"
                        stroke="none" />
                    <path
                        d="M 3.5 1 C 2.121500015258789 1 1 2.121500015258789 1 3.5 C 1 4.878499984741211 2.121500015258789 6 3.5 6 C 4.878499984741211 6 6 4.878499984741211 6 3.5 C 6 2.121500015258789 4.878499984741211 1 3.5 1 M 3.5 0 C 5.433000087738037 0 7 1.566999912261963 7 3.5 C 7 5.433000087738037 5.433000087738037 7 3.5 7 C 1.566999912261963 7 0 5.433000087738037 0 3.5 C 0 1.566999912261963 1.566999912261963 0 3.5 0 Z"
                        stroke="none" fill="#fff" />
                </g>
                <g fill="#fbb03f" stroke="#fff" stroke-width="1">
                    <circle cx="3.5" cy="3.5" r="3.5" stroke="none" />
                    <circle cx="3.5" cy="3.5" r="3" fill="none" />
                </g>
            </g>
        </g>
    </g>
</svg>